<svg width="200" height="200" xmlns="http://www.w3.org/2000/svg">
  <rect width="200" height="200" fill="#f8f9fa" stroke="#dee2e6" stroke-width="2"/>
  <rect x="20" y="20" width="160" height="160" fill="white" stroke="#28a745" stroke-width="2"/>
  <rect x="30" y="30" width="140" height="140" fill="#f8f9fa"/>
  
  <!-- 微信图标 -->
  <circle cx="80" cy="70" r="15" fill="#28a745"/>
  <circle cx="120" cy="70" r="15" fill="#28a745"/>
  <circle cx="100" cy="100" r="25" fill="#28a745"/>
  
  <!-- 二维码样式网格 -->
  <rect x="40" y="120" width="8" height="8" fill="#000"/>
  <rect x="52" y="120" width="8" height="8" fill="#000"/>
  <rect x="64" y="120" width="8" height="8" fill="#000"/>
  <rect x="76" y="120" width="8" height="8" fill="#000"/>
  <rect x="88" y="120" width="8" height="8" fill="#000"/>
  <rect x="100" y="120" width="8" height="8" fill="#000"/>
  <rect x="112" y="120" width="8" height="8" fill="#000"/>
  <rect x="124" y="120" width="8" height="8" fill="#000"/>
  <rect x="136" y="120" width="8" height="8" fill="#000"/>
  <rect x="148" y="120" width="8" height="8" fill="#000"/>
  
  <rect x="40" y="132" width="8" height="8" fill="#000"/>
  <rect x="64" y="132" width="8" height="8" fill="#000"/>
  <rect x="88" y="132" width="8" height="8" fill="#000"/>
  <rect x="112" y="132" width="8" height="8" fill="#000"/>
  <rect x="136" y="132" width="8" height="8" fill="#000"/>
  
  <rect x="40" y="144" width="8" height="8" fill="#000"/>
  <rect x="52" y="144" width="8" height="8" fill="#000"/>
  <rect x="64" y="144" width="8" height="8" fill="#000"/>
  <rect x="76" y="144" width="8" height="8" fill="#000"/>
  <rect x="88" y="144" width="8" height="8" fill="#000"/>
  <rect x="100" y="144" width="8" height="8" fill="#000"/>
  <rect x="112" y="144" width="8" height="8" fill="#000"/>
  <rect x="124" y="144" width="8" height="8" fill="#000"/>
  <rect x="136" y="144" width="8" height="8" fill="#000"/>
  <rect x="148" y="144" width="8" height="8" fill="#000"/>
  
  <text x="100" y="170" text-anchor="middle" font-family="Arial, sans-serif" font-size="12" fill="#666">微信支付二维码</text>
</svg>
